<mxfile host="app.diagrams.net" modified="2024-02-09T10:44:57.714Z" agent="Mozilla/5.0 (Windows NT 10.0; Win64; x64) AppleWebKit/537.36 (KHTML, like Gecko) Chrome/120.0.0.0 Safari/537.36 OPR/106.0.0.0 (Edition Yx GX)" version="23.1.1" etag="yonvhnebL-GKW3VH0dCU" type="github">
  <diagram name="Страница — 1" id="1jUb00moQ8v8HEF0yB9A">
    <mxGraphModel>
      <root>
        <mxCell id="0" />
        <mxCell id="1" parent="0" />
      </root>
    </mxGraphModel>
  </diagram>
</mxfile>
